<svg width="1600" height="800" viewBox="0 0 1600 800" fill="none" xmlns="http://www.w3.org/2000/svg">
<g clip-path="url(#clip0)">
<rect width="1600" height="800" fill="#031B4E"/>
<rect width="1600" height="800" fill="url(#paint0_linear)"/>
<g style="mix-blend-mode:luminosity" opacity="0.25">
<g clip-path="url(#clip1)">
<g opacity="0.3">
<path opacity="0.3" d="M1255.81 267.762L1254.33 -1340.43L1363.35 -1403.57L1472.38 -1340.43V267.762L1364.83 330.906L1255.81 267.762Z" fill="url(#paint1_linear)"/>
<path opacity="0.3" d="M1360.89 -1282.71L1472.38 -1340.43V267.762L1364.83 330.906L1360.89 -1282.71Z" fill="url(#paint2_linear)"/>
</g>
<path opacity="0.4" d="M3406.15 3203.45V1577.99C3406.15 1577.5 3406.15 30.9738 3405.66 30.9738L1830.03 -731.683L254.396 30.9738C253.903 30.9738 253.902 1577.99 253.902 1578.49V3203.94H3406.15V3203.45Z" fill="url(#paint3_linear)"/>
<path d="M-311.925 292.921L1692.39 -676.925L1701.27 -681.365L1708.18 -686.791L1714.1 -692.218L1718.04 -698.631L1720.02 -704.551L1720.51 -710.964L1719.03 -717.377L1716.07 -723.79L1711.63 -729.709L1706.7 -735.136L1700.28 -740.562L1692.39 -745.989L1684.01 -750.922L-189.584 -1658.12" stroke="url(#paint4_linear)" stroke-width="1.5665"/>
<path d="M2105.79 790.671L163.627 1730.43L154.747 1735.36L147.347 1740.29L141.921 1746.21L137.974 1752.13L136.002 1758.54L135.508 1764.46L136.988 1770.88L139.948 1777.29L143.894 1783.21L149.321 1789.13L155.734 1794.06L163.627 1799.49L171.52 1804.42L2138.34 2756.51L2148.21 2760.95L2158.57 2764.9L2169.92 2768.35L2181.26 2771.31L2193.1 2773.77L2205.93 2775.75L2219.25 2777.72L2232.07 2778.21L2244.9 2778.71H2258.71L2272.03 2777.72L2284.86 2775.75L2296.7 2773.77L2308.04 2770.82L2318.9 2766.87L3950.27 1977.57" stroke="url(#paint5_linear)" stroke-width="1.5665"/>
<path d="M115.282 701.875V1524.71" stroke="url(#paint6_linear)" stroke-width="1.9392" stroke-miterlimit="10" stroke-linecap="round"/>
<path d="M115.281 722.101C126.452 722.101 135.507 713.045 135.507 701.875C135.507 690.705 126.452 681.649 115.281 681.649C104.111 681.649 95.0557 690.705 95.0557 701.875C95.0557 713.045 104.111 722.101 115.281 722.101Z" fill="url(#paint7_radial)"/>
<path d="M115.281 722.101C126.452 722.101 135.507 713.045 135.507 701.875C135.507 690.705 126.452 681.649 115.281 681.649C104.111 681.649 95.0557 690.705 95.0557 701.875C95.0557 713.045 104.111 722.101 115.281 722.101Z" fill="url(#paint8_radial)"/>
<path d="M115.282 711.741C120.731 711.741 125.148 707.324 125.148 701.875C125.148 696.426 120.731 692.009 115.282 692.009C109.833 692.009 105.416 696.426 105.416 701.875C105.416 707.324 109.833 711.741 115.282 711.741Z" fill="black"/>
<path d="M115.282 711.741C120.731 711.741 125.148 707.324 125.148 701.875C125.148 696.426 120.731 692.009 115.282 692.009C109.833 692.009 105.416 696.426 105.416 701.875C105.416 707.324 109.833 711.741 115.282 711.741Z" fill="white"/>
<path opacity="0.2" d="M3405.66 1940.57V18.641C3405.66 18.1476 3405.66 18.1476 3405.16 17.6543L1829.53 -745.002L253.902 17.6543C253.409 17.6543 253.409 18.1476 253.409 18.641V1940.57C253.409 1941.07 253.409 1941.56 253.902 1941.56L1829.53 2704.22L3405.16 1941.56C3405.66 1941.56 3405.66 1941.07 3405.66 1940.57Z" fill="url(#paint9_linear)"/>
<path opacity="0.7" d="M3187.12 1774.33V139.995C3187.12 139.502 3187.12 139.502 3186.63 139.502L1846.8 -509.2L506.968 139.502C506.475 139.502 506.475 139.995 506.475 140.488V1774.82C506.475 1775.32 506.475 1775.32 506.968 1775.81L1846.8 2424.51L3186.63 1775.81C3186.63 1775.32 3187.12 1774.82 3187.12 1774.33Z" fill="url(#paint10_linear)"/>
<path opacity="0.3" d="M505.981 139.502V1773.84L1845.81 1125.13C1846.3 1125.13 1846.3 1124.64 1846.3 1124.64V-510.187C1846.3 -510.68 1846.3 -510.68 1845.81 -510.68L505.981 139.502Z" fill="url(#paint11_linear)"/>
<path opacity="0.2" d="M1849.76 -503.281L3189.59 145.421C3190.08 145.915 3190.08 146.902 3189.59 146.902L1849.76 795.604L509.929 146.902L1849.76 -503.281Z" fill="url(#paint12_linear)"/>
<path opacity="0.75" d="M1304.65 1468.48C1569.74 1468.48 1784.64 1253.58 1784.64 988.487C1784.64 723.396 1569.74 508.498 1304.65 508.498C1039.56 508.498 824.66 723.396 824.66 988.487C824.66 1253.58 1039.56 1468.48 1304.65 1468.48Z" fill="url(#paint13_radial)"/>
<path d="M1716.56 597.293C1716.56 505.044 1532.07 430.061 1305.14 430.061C1078.22 430.061 893.723 505.044 893.723 597.293V877.986C893.723 970.235 1078.22 1045.22 1305.14 1045.22C1532.07 1045.22 1716.56 970.235 1716.56 877.986V597.293Z" fill="url(#paint14_linear)"/>
<path opacity="0.2" d="M1200.07 1039.79C1136.92 1032.89 1079.7 1020.55 1031.85 1003.29V872.56V722.594C1076.25 738.873 1129.53 750.713 1188.23 757.619C1192.18 758.112 1195.63 758.605 1199.58 759.099L1200.07 1039.79Z" fill="url(#paint15_linear)"/>
<path d="M1304.65 764.525C1531.87 764.525 1716.07 689.653 1716.07 597.293C1716.07 504.933 1531.87 430.061 1304.65 430.061C1077.43 430.061 893.229 504.933 893.229 597.293C893.229 689.653 1077.43 764.525 1304.65 764.525Z" fill="url(#paint16_linear)"/>
<path opacity="0.75" d="M1304.65 1076.79C1569.74 1076.79 1784.64 861.891 1784.64 596.8C1784.64 331.708 1569.74 116.81 1304.65 116.81C1039.56 116.81 824.66 331.708 824.66 596.8C824.66 861.891 1039.56 1076.79 1304.65 1076.79Z" fill="url(#paint17_radial)"/>
<path d="M1716.56 202.646C1716.56 110.397 1532.07 35.4136 1305.14 35.4136C1078.22 35.4136 893.723 110.397 893.723 202.646V483.338C893.723 575.587 1078.22 650.57 1305.14 650.57C1532.07 650.57 1716.56 575.587 1716.56 483.338V202.646Z" fill="url(#paint18_linear)"/>
<path opacity="0.2" d="M1200.07 645.145C1136.92 638.238 1079.7 625.905 1031.85 608.64V477.912V327.946C1076.25 344.226 1129.53 356.065 1188.23 362.971C1192.18 363.465 1195.63 363.958 1199.58 364.451L1200.07 645.145Z" fill="url(#paint19_linear)"/>
<path d="M1304.65 369.877C1531.87 369.877 1716.07 295.005 1716.07 202.646C1716.07 110.286 1531.87 35.4136 1304.65 35.4136C1077.43 35.4136 893.229 110.286 893.229 202.646C893.229 295.005 1077.43 369.877 1304.65 369.877Z" fill="url(#paint20_linear)"/>
<path d="M3186.62 1774.33V139.995C3186.62 139.502 3186.63 139.502 3186.13 139.502L1846.3 -509.2L506.475 139.502C505.981 139.502 505.981 139.995 505.981 140.488V1774.82C505.981 1775.32 505.981 1775.32 506.475 1775.81L1846.3 2424.51L3186.13 1775.81C3186.13 1775.32 3186.62 1774.82 3186.62 1774.33Z" fill="url(#paint21_linear)"/>
<path opacity="0.75" d="M1853.21 1574.54C2118.3 1574.54 2333.2 1359.64 2333.2 1094.55C2333.2 829.458 2118.3 614.559 1853.21 614.559C1588.12 614.559 1373.22 829.458 1373.22 1094.55C1373.22 1359.64 1588.12 1574.54 1853.21 1574.54Z" fill="url(#paint22_radial)"/>
<path d="M2264.63 700.395C2264.63 608.146 2080.13 533.163 1853.21 533.163C1625.8 533.163 1441.79 608.146 1441.79 700.395V981.088C1441.79 1073.34 1626.29 1148.32 1853.21 1148.32C2080.63 1148.32 2264.63 1073.34 2264.63 981.088V700.395Z" fill="url(#paint23_linear)"/>
<path d="M1853.21 867.626C2080.43 867.626 2264.63 792.754 2264.63 700.395C2264.63 608.035 2080.43 533.163 1853.21 533.163C1625.99 533.163 1441.79 608.035 1441.79 700.395C1441.79 792.754 1625.99 867.626 1853.21 867.626Z" fill="url(#paint24_linear)"/>
<path d="M1846.3 789.684V2424.02L506.475 1775.32C505.981 1775.32 505.981 1774.82 505.981 1774.82V139.995C505.981 139.502 505.981 139.502 506.475 139.502L1846.3 789.684Z" fill="url(#paint25_linear)"/>
<path opacity="0.2" d="M726.491 324V-67.688V-867.836L405.346 -1023.23L84.2021 -867.836V-67.688V324L405.346 479.392L726.491 324C725.997 324.493 726.491 324 726.491 324Z" fill="url(#paint26_linear)"/>
<path d="M735.373 218.431L-213.755 674.249L-218.195 676.222L-221.155 678.689L-224.115 681.649L-226.088 684.115L-226.581 687.075L-227.075 690.035L-226.088 692.995L-225.102 695.955L-223.128 698.914L-220.662 701.381L-217.702 703.848L-213.755 706.314L-210.303 708.781L626.844 1110.83" stroke="url(#paint27_linear)" stroke-width="1.5665"/>
</g>
</g>
</g>
<defs>
<linearGradient id="paint0_linear" x1="0" y1="0" x2="1600" y2="800" gradientUnits="userSpaceOnUse">
<stop stop-color="#0069FF"/>
<stop offset="1" stop-color="#0248FF"/>
</linearGradient>
<linearGradient id="paint1_linear" x1="1363.41" y1="-1426.27" x2="1363.41" y2="297.146" gradientUnits="userSpaceOnUse">
<stop stop-color="#0298FF" stop-opacity="0.3"/>
<stop offset="1" stop-color="#0298FF" stop-opacity="0"/>
</linearGradient>
<linearGradient id="paint2_linear" x1="1416.52" y1="-1332.81" x2="1416.52" y2="160.633" gradientUnits="userSpaceOnUse">
<stop stop-color="#0298FF" stop-opacity="0.6"/>
<stop offset="1" stop-color="#0298FF" stop-opacity="0"/>
</linearGradient>
<linearGradient id="paint3_linear" x1="1830.24" y1="2433.87" x2="1830.24" y2="-331.44" gradientUnits="userSpaceOnUse">
<stop stop-color="#00E1C3" stop-opacity="0.4"/>
<stop offset="1" stop-color="#00E1C3" stop-opacity="0"/>
</linearGradient>
<linearGradient id="paint4_linear" x1="1354.26" y1="-73.8374" x2="1166.95" y2="-1294.08" gradientUnits="userSpaceOnUse">
<stop stop-color="#00FFFF"/>
<stop offset="0.9792" stop-color="#00FFFF" stop-opacity="0"/>
</linearGradient>
<linearGradient id="paint5_linear" x1="1825.06" y1="2662.09" x2="1608.2" y2="1247.38" gradientUnits="userSpaceOnUse">
<stop stop-color="#00FFFF"/>
<stop offset="0.9792" stop-color="#00FFFF" stop-opacity="0"/>
</linearGradient>
<linearGradient id="paint6_linear" x1="-nan" y1="-nan" x2="-nan" y2="-nan" gradientUnits="userSpaceOnUse">
<stop stop-color="#00E1C3"/>
<stop offset="1" stop-color="#00E1C3" stop-opacity="0"/>
</linearGradient>
<radialGradient id="paint7_radial" cx="0" cy="0" r="1" gradientUnits="userSpaceOnUse" gradientTransform="translate(115.359 701.906) scale(20.1817 20.1819)">
<stop stop-color="white"/>
<stop offset="0.2549" stop-color="#BFD5FF" stop-opacity="0.7451"/>
<stop offset="0.5087" stop-color="#87B1FF" stop-opacity="0.4913"/>
<stop offset="0.7253" stop-color="#5F96FF" stop-opacity="0.2747"/>
<stop offset="0.8961" stop-color="#4686FF" stop-opacity="0.1039"/>
<stop offset="1" stop-color="#3D80FF" stop-opacity="0"/>
</radialGradient>
<radialGradient id="paint8_radial" cx="0" cy="0" r="1" gradientUnits="userSpaceOnUse" gradientTransform="translate(115.359 701.906) scale(20.1817 20.1819)">
<stop stop-color="white"/>
<stop offset="0.1067" stop-color="#F8FBFF" stop-opacity="0.8933"/>
<stop offset="0.2596" stop-color="#E5EEFF" stop-opacity="0.7404"/>
<stop offset="0.4405" stop-color="#C6DAFF" stop-opacity="0.5595"/>
<stop offset="0.6427" stop-color="#9BBEFF" stop-opacity="0.3573"/>
<stop offset="0.8599" stop-color="#649AFF" stop-opacity="0.1401"/>
<stop offset="1" stop-color="#3D80FF" stop-opacity="0"/>
</radialGradient>
<linearGradient id="paint9_linear" x1="1829.84" y1="2058.66" x2="1829.84" y2="-197.333" gradientUnits="userSpaceOnUse">
<stop stop-color="#00E1C3" stop-opacity="0.4"/>
<stop offset="1" stop-color="#00E1C3" stop-opacity="0"/>
</linearGradient>
<linearGradient id="paint10_linear" x1="506.385" y1="957.381" x2="3187" y2="957.381" gradientUnits="userSpaceOnUse">
<stop stop-color="#0298FF" stop-opacity="0.6"/>
<stop offset="1" stop-color="#0298FF" stop-opacity="0"/>
</linearGradient>
<linearGradient id="paint11_linear" x1="152.808" y1="-441.104" x2="1539.26" y2="1012.44" gradientUnits="userSpaceOnUse">
<stop stop-color="#0298FF" stop-opacity="0"/>
<stop offset="1" stop-color="white" stop-opacity="0.6"/>
</linearGradient>
<linearGradient id="paint12_linear" x1="1849.92" y1="-435.576" x2="1849.92" y2="226.628" gradientUnits="userSpaceOnUse">
<stop stop-color="#0298FF" stop-opacity="0"/>
<stop offset="1" stop-color="white" stop-opacity="0.6"/>
</linearGradient>
<radialGradient id="paint13_radial" cx="0" cy="0" r="1" gradientUnits="userSpaceOnUse" gradientTransform="translate(1307 986.611) rotate(180) scale(419.878 151.156)">
<stop stop-color="#2A37D2"/>
<stop offset="0.5853" stop-color="#293CD6" stop-opacity="0.8832"/>
<stop offset="0.7347" stop-color="#293ED8" stop-opacity="0.8534"/>
<stop offset="0.8283" stop-color="#2749E1" stop-opacity="0.5524"/>
<stop offset="0.9947" stop-color="#2268F8" stop-opacity="0.0171747"/>
<stop offset="1" stop-color="#2269F9" stop-opacity="0"/>
</radialGradient>
<linearGradient id="paint14_linear" x1="1732.04" y1="737.72" x2="850.93" y2="737.72" gradientUnits="userSpaceOnUse">
<stop stop-color="#2432D8"/>
<stop offset="0.1024" stop-color="#203FE2"/>
<stop offset="0.3558" stop-color="#175AF6"/>
<stop offset="0.5046" stop-color="#1464FD"/>
<stop offset="0.6259" stop-color="#1361FC"/>
<stop offset="0.7208" stop-color="#1157FA"/>
<stop offset="0.8067" stop-color="#0E46F6"/>
<stop offset="0.8874" stop-color="#092FF1"/>
<stop offset="0.9636" stop-color="#0311EB"/>
<stop offset="1" stop-color="#0000E7"/>
</linearGradient>
<linearGradient id="paint15_linear" x1="1031.9" y1="881.169" x2="1199.91" y2="881.169" gradientUnits="userSpaceOnUse">
<stop stop-color="#0053FF" stop-opacity="0"/>
<stop offset="0.0260523" stop-color="#1A65FF" stop-opacity="0.0580947"/>
<stop offset="0.0767618" stop-color="#4684FF" stop-opacity="0.1712"/>
<stop offset="0.1298" stop-color="#6C9EFF" stop-opacity="0.2894"/>
<stop offset="0.1845" stop-color="#8BB4FF" stop-opacity="0.4115"/>
<stop offset="0.2415" stop-color="#A3C5FF" stop-opacity="0.5386"/>
<stop offset="0.3018" stop-color="#B4D1FF" stop-opacity="0.6729"/>
<stop offset="0.3674" stop-color="#BED8FF" stop-opacity="0.8192"/>
<stop offset="0.4484" stop-color="#C1DAFF"/>
<stop offset="0.655" stop-color="#BFD9FF" stop-opacity="0.6059"/>
<stop offset="0.7294" stop-color="#B8D4FF" stop-opacity="0.464"/>
<stop offset="0.7824" stop-color="#ADCBFF" stop-opacity="0.3627"/>
<stop offset="0.8253" stop-color="#9CBFFF" stop-opacity="0.2809"/>
<stop offset="0.8621" stop-color="#86AFFF" stop-opacity="0.2107"/>
<stop offset="0.8946" stop-color="#6A9BFF" stop-opacity="0.1487"/>
<stop offset="0.924" stop-color="#4A83FF" stop-opacity="0.0925753"/>
<stop offset="0.9502" stop-color="#2669FF" stop-opacity="0.0426861"/>
<stop offset="0.9725" stop-color="#004DFF" stop-opacity="0"/>
</linearGradient>
<linearGradient id="paint16_linear" x1="1304.78" y1="1326.46" x2="1304.78" y2="119.463" gradientUnits="userSpaceOnUse">
<stop stop-color="#009DD7"/>
<stop offset="1" stop-color="#00FFFF"/>
</linearGradient>
<radialGradient id="paint17_radial" cx="0" cy="0" r="1" gradientUnits="userSpaceOnUse" gradientTransform="translate(1307 594.813) rotate(180) scale(419.878 151.156)">
<stop stop-color="#2A37D2"/>
<stop offset="0.5853" stop-color="#293CD6" stop-opacity="0.8832"/>
<stop offset="0.7347" stop-color="#293ED8" stop-opacity="0.8534"/>
<stop offset="0.8283" stop-color="#2749E1" stop-opacity="0.5524"/>
<stop offset="0.9947" stop-color="#2268F8" stop-opacity="0.0171747"/>
<stop offset="1" stop-color="#2269F9" stop-opacity="0"/>
</radialGradient>
<linearGradient id="paint18_linear" x1="1732.04" y1="343.141" x2="850.93" y2="343.141" gradientUnits="userSpaceOnUse">
<stop stop-color="#2432D8"/>
<stop offset="0.1024" stop-color="#203FE2"/>
<stop offset="0.3558" stop-color="#175AF6"/>
<stop offset="0.5046" stop-color="#1464FD"/>
<stop offset="0.6259" stop-color="#1361FC"/>
<stop offset="0.7208" stop-color="#1157FA"/>
<stop offset="0.8067" stop-color="#0E46F6"/>
<stop offset="0.8874" stop-color="#092FF1"/>
<stop offset="0.9636" stop-color="#0311EB"/>
<stop offset="1" stop-color="#0000E7"/>
</linearGradient>
<linearGradient id="paint19_linear" x1="1031.9" y1="486.59" x2="1199.91" y2="486.59" gradientUnits="userSpaceOnUse">
<stop stop-color="#0053FF" stop-opacity="0"/>
<stop offset="0.0260523" stop-color="#1A65FF" stop-opacity="0.0580947"/>
<stop offset="0.0767618" stop-color="#4684FF" stop-opacity="0.1712"/>
<stop offset="0.1298" stop-color="#6C9EFF" stop-opacity="0.2894"/>
<stop offset="0.1845" stop-color="#8BB4FF" stop-opacity="0.4115"/>
<stop offset="0.2415" stop-color="#A3C5FF" stop-opacity="0.5386"/>
<stop offset="0.3018" stop-color="#B4D1FF" stop-opacity="0.6729"/>
<stop offset="0.3674" stop-color="#BED8FF" stop-opacity="0.8192"/>
<stop offset="0.4484" stop-color="#C1DAFF"/>
<stop offset="0.655" stop-color="#BFD9FF" stop-opacity="0.6059"/>
<stop offset="0.7294" stop-color="#B8D4FF" stop-opacity="0.464"/>
<stop offset="0.7824" stop-color="#ADCBFF" stop-opacity="0.3627"/>
<stop offset="0.8253" stop-color="#9CBFFF" stop-opacity="0.2809"/>
<stop offset="0.8621" stop-color="#86AFFF" stop-opacity="0.2107"/>
<stop offset="0.8946" stop-color="#6A9BFF" stop-opacity="0.1487"/>
<stop offset="0.924" stop-color="#4A83FF" stop-opacity="0.0925753"/>
<stop offset="0.9502" stop-color="#2669FF" stop-opacity="0.0426861"/>
<stop offset="0.9725" stop-color="#004DFF" stop-opacity="0"/>
</linearGradient>
<linearGradient id="paint20_linear" x1="1415.21" y1="790.142" x2="927.064" y2="-1806.22" gradientUnits="userSpaceOnUse">
<stop stop-color="#00FFFF"/>
<stop offset="1" stop-color="#0024FF"/>
</linearGradient>
<linearGradient id="paint21_linear" x1="1846.18" y1="-323.977" x2="1846.18" y2="866.919" gradientUnits="userSpaceOnUse">
<stop stop-color="#0029FF" stop-opacity="0.6"/>
<stop offset="1" stop-color="#0298FF" stop-opacity="0"/>
</linearGradient>
<radialGradient id="paint22_radial" cx="0" cy="0" r="1" gradientUnits="userSpaceOnUse" gradientTransform="translate(1855.35 1092.58) rotate(180) scale(419.878 151.156)">
<stop stop-color="#2A37D2"/>
<stop offset="0.5853" stop-color="#293CD6" stop-opacity="0.8832"/>
<stop offset="0.7347" stop-color="#293ED8" stop-opacity="0.8534"/>
<stop offset="0.8283" stop-color="#2749E1" stop-opacity="0.5524"/>
<stop offset="0.9947" stop-color="#2268F8" stop-opacity="0.0171747"/>
<stop offset="1" stop-color="#2269F9" stop-opacity="0"/>
</radialGradient>
<linearGradient id="paint23_linear" x1="2280.38" y1="840.904" x2="1399.28" y2="840.904" gradientUnits="userSpaceOnUse">
<stop stop-color="#2432D8"/>
<stop offset="0.1024" stop-color="#203FE2"/>
<stop offset="0.3558" stop-color="#175AF6"/>
<stop offset="0.5046" stop-color="#1464FD"/>
<stop offset="0.6259" stop-color="#1361FC"/>
<stop offset="0.7208" stop-color="#1157FA"/>
<stop offset="0.8067" stop-color="#0E46F6"/>
<stop offset="0.8874" stop-color="#092FF1"/>
<stop offset="0.9636" stop-color="#0311EB"/>
<stop offset="1" stop-color="#0000E7"/>
</linearGradient>
<linearGradient id="paint24_linear" x1="1863.41" y1="755.237" x2="1375.27" y2="-1841.12" gradientUnits="userSpaceOnUse">
<stop stop-color="#00FFFF"/>
<stop offset="1" stop-color="#0024FF"/>
</linearGradient>
<linearGradient id="paint25_linear" x1="191.526" y1="424.881" x2="1921.67" y2="1931.79" gradientUnits="userSpaceOnUse">
<stop stop-color="#001FFD" stop-opacity="0.6"/>
<stop offset="1" stop-color="#0298FF" stop-opacity="0"/>
</linearGradient>
<linearGradient id="paint26_linear" x1="405.146" y1="-40.563" x2="405.146" y2="-417.669" gradientUnits="userSpaceOnUse">
<stop stop-color="#00E1C3" stop-opacity="0"/>
<stop offset="1" stop-color="#00E1C3" stop-opacity="0.4"/>
</linearGradient>
<linearGradient id="paint27_linear" x1="-53.2136" y1="1000.17" x2="19.1806" y2="353.684" gradientUnits="userSpaceOnUse">
<stop stop-color="#00FFFF"/>
<stop offset="0.9792" stop-color="#00FFFF" stop-opacity="0"/>
</linearGradient>
<clipPath id="clip0">
<rect width="1600" height="800" fill="white"/>
</clipPath>
<clipPath id="clip1">
<rect x="-5652" y="-4100" width="10783.3" height="8000" fill="white"/>
</clipPath>
</defs>
</svg>
